<svg width="455" height="626" viewBox="0 0 455 626" fill="none" xmlns="http://www.w3.org/2000/svg">
<g opacity="0.4">
<path d="M258.829 212.002L361.916 226.403L323.395 129.718L220.495 115.786L258.829 212.002Z" fill="url(#paint0_linear_418_4598)" stroke="url(#paint1_linear_418_4598)" stroke-width="1.99628" stroke-linejoin="bevel"/>
<path d="M285.472 33.288L388.277 48.346L323.337 129.691L220.452 115.764L285.472 33.288Z" fill="url(#paint2_linear_418_4598)" stroke="url(#paint3_linear_418_4598)" stroke-width="1.99628" stroke-linejoin="bevel"/>
<path d="M425.953 144.254L361.483 225.413L323.336 129.666L388.276 48.3206L425.953 144.254Z" fill="url(#paint4_linear_418_4598)" stroke="url(#paint5_linear_418_4598)" stroke-width="1.99628" stroke-linejoin="bevel"/>
</g>
<g opacity="0.4">
<path d="M187.067 389.002L83.9805 403.403L122.501 306.718L225.401 292.786L187.067 389.002Z" fill="url(#paint6_linear_418_4598)" stroke="url(#paint7_linear_418_4598)" stroke-width="1.99628" stroke-linejoin="bevel"/>
<path d="M160.424 210.288L57.6194 225.346L122.559 306.691L225.444 292.764L160.424 210.288Z" fill="url(#paint8_linear_418_4598)" stroke="url(#paint9_linear_418_4598)" stroke-width="1.99628" stroke-linejoin="bevel"/>
<path d="M19.9426 321.254L84.4131 402.413L122.56 306.666L57.6199 225.321L19.9426 321.254Z" fill="url(#paint10_linear_418_4598)" stroke="url(#paint11_linear_418_4598)" stroke-width="1.99628" stroke-linejoin="bevel"/>
</g>
<g opacity="0.4">
<path d="M413.683 528.771L397.954 425.878L316.353 490.479L332.478 593.057L413.683 528.771Z" fill="url(#paint12_linear_418_4598)" stroke="url(#paint13_linear_418_4598)" stroke-width="1.99628" stroke-linejoin="bevel"/>
<path d="M234.826 554.433L219.807 451.623L316.345 490.542L332.47 593.106L234.826 554.433Z" fill="url(#paint14_linear_418_4598)" stroke="url(#paint15_linear_418_4598)" stroke-width="1.99628" stroke-linejoin="bevel"/>
<path d="M300.904 388.054L397.129 426.577L316.32 490.55L219.782 451.631L300.904 388.054Z" fill="url(#paint16_linear_418_4598)" stroke="url(#paint17_linear_418_4598)" stroke-width="1.99628" stroke-linejoin="bevel"/>
</g>
<defs>
<linearGradient id="paint0_linear_418_4598" x1="322.13" y1="120.778" x2="252.367" y2="228.739" gradientUnits="userSpaceOnUse">
<stop stop-color="#36BEFF"/>
<stop offset="1" stop-color="white" stop-opacity="0.8"/>
</linearGradient>
<linearGradient id="paint1_linear_418_4598" x1="304.508" y1="82.3137" x2="193.893" y2="192.665" gradientUnits="userSpaceOnUse">
<stop offset="0.24238" stop-color="#36BEFF"/>
<stop offset="1" stop-color="#733FF1"/>
</linearGradient>
<linearGradient id="paint2_linear_418_4598" x1="285.008" y1="33.4729" x2="323.342" y2="129.689" gradientUnits="userSpaceOnUse">
<stop stop-color="#36BEFF"/>
<stop offset="0.604167" stop-color="#D4EDFF" stop-opacity="0"/>
</linearGradient>
<linearGradient id="paint3_linear_418_4598" x1="369.016" y1="0.00317383" x2="310.789" y2="200.613" gradientUnits="userSpaceOnUse">
<stop offset="0.24238" stop-color="#36BEFF"/>
<stop offset="1" stop-color="#733FF1"/>
</linearGradient>
<linearGradient id="paint4_linear_418_4598" x1="405.847" y1="86.6573" x2="336.326" y2="194.607" gradientUnits="userSpaceOnUse">
<stop stop-color="#36BEFF"/>
<stop offset="1" stop-color="#36BEFF" stop-opacity="0.24"/>
</linearGradient>
<linearGradient id="paint5_linear_418_4598" x1="388.276" y1="48.3206" x2="277.847" y2="158.747" gradientUnits="userSpaceOnUse">
<stop offset="0.24238" stop-color="#36BEFF"/>
<stop offset="1" stop-color="#733FF1"/>
</linearGradient>
<linearGradient id="paint6_linear_418_4598" x1="123.766" y1="297.778" x2="193.529" y2="405.739" gradientUnits="userSpaceOnUse">
<stop stop-color="#36BEFF"/>
<stop offset="1" stop-color="white" stop-opacity="0.8"/>
</linearGradient>
<linearGradient id="paint7_linear_418_4598" x1="141.388" y1="259.314" x2="252.003" y2="369.665" gradientUnits="userSpaceOnUse">
<stop offset="0.24238" stop-color="#36BEFF"/>
<stop offset="1" stop-color="#733FF1"/>
</linearGradient>
<linearGradient id="paint8_linear_418_4598" x1="160.888" y1="210.473" x2="122.554" y2="306.689" gradientUnits="userSpaceOnUse">
<stop stop-color="#36BEFF"/>
<stop offset="0.604167" stop-color="#D4EDFF" stop-opacity="0"/>
</linearGradient>
<linearGradient id="paint9_linear_418_4598" x1="76.8797" y1="177.003" x2="135.107" y2="377.613" gradientUnits="userSpaceOnUse">
<stop offset="0.24238" stop-color="#36BEFF"/>
<stop offset="1" stop-color="#733FF1"/>
</linearGradient>
<linearGradient id="paint10_linear_418_4598" x1="40.0491" y1="263.657" x2="109.569" y2="371.607" gradientUnits="userSpaceOnUse">
<stop stop-color="#36BEFF"/>
<stop offset="1" stop-color="#36BEFF" stop-opacity="0.24"/>
</linearGradient>
<linearGradient id="paint11_linear_418_4598" x1="57.6199" y1="225.321" x2="168.049" y2="335.747" gradientUnits="userSpaceOnUse">
<stop offset="0.24238" stop-color="#36BEFF"/>
<stop offset="1" stop-color="#733FF1"/>
</linearGradient>
<linearGradient id="paint12_linear_418_4598" x1="308.15" y1="494.251" x2="431.57" y2="530.168" gradientUnits="userSpaceOnUse">
<stop stop-color="#36BEFF"/>
<stop offset="1" stop-color="white" stop-opacity="0.8"/>
</linearGradient>
<linearGradient id="paint13_linear_418_4598" x1="276.344" y1="522.152" x2="413.756" y2="596.524" gradientUnits="userSpaceOnUse">
<stop offset="0.24238" stop-color="#36BEFF"/>
<stop offset="1" stop-color="#733FF1"/>
</linearGradient>
<linearGradient id="paint14_linear_418_4598" x1="235.136" y1="554.824" x2="316.341" y2="490.538" gradientUnits="userSpaceOnUse">
<stop stop-color="#36BEFF"/>
<stop offset="0.604167" stop-color="#D4EDFF" stop-opacity="0"/>
</linearGradient>
<linearGradient id="paint15_linear_418_4598" x1="179.007" y1="483.923" x2="387.889" y2="482.25" gradientUnits="userSpaceOnUse">
<stop offset="0.24238" stop-color="#36BEFF"/>
<stop offset="1" stop-color="#733FF1"/>
</linearGradient>
<linearGradient id="paint16_linear_418_4598" x1="251.48" y1="423.816" x2="374.819" y2="459.503" gradientUnits="userSpaceOnUse">
<stop stop-color="#36BEFF"/>
<stop offset="1" stop-color="#36BEFF" stop-opacity="0.24"/>
</linearGradient>
<linearGradient id="paint17_linear_418_4598" x1="219.782" y1="451.631" x2="357.212" y2="525.803" gradientUnits="userSpaceOnUse">
<stop offset="0.24238" stop-color="#36BEFF"/>
<stop offset="1" stop-color="#733FF1"/>
</linearGradient>
</defs>
</svg>
